<?xml version="1.0"?>
<svg xmlns="http://www.w3.org/2000/svg" height="512px" viewBox="0 0 368 368" width="512px" class=""><g transform="matrix(0.9998 0 0 0.9998 0.0367981 0.0367981)"><path d="m360 0h-48c-4.425781 0-8 3.585938-8 8v56h-32v-56c0-4.414062-3.574219-8-8-8s-8 3.585938-8 8v56h-144v-56c0-4.414062-3.585938-8-8-8s-8 3.585938-8 8v56h-32v-56c0-4.414062-3.585938-8-8-8h-48c-4.414062 0-8 3.585938-8 8v128c0 4.414062 3.585938 8 8 8h48c4.414062 0 8-3.585938 8-8v-56h32v112h-56c-4.414062 0-8 3.585938-8 8v64c0 4.414062 3.585938 8 8 8h56v80h-88c-4.414062 0-8 3.585938-8 8s3.585938 8 8 8h352c4.425781 0 8-3.585938 8-8s-3.574219-8-8-8h-88v-80h56c4.425781 0 8-3.585938 8-8v-64c0-4.414062-3.574219-8-8-8h-56v-112h32v56c0 4.414062 3.574219 8 8 8h48c4.425781 0 8-3.585938 8-8v-128c0-4.414062-3.574219-8-8-8zm-312 128h-32v-112h32zm64 224v-32h144v32zm144-48h-144v-32h144zm64-48h-272v-48h272zm-64-64h-144v-112h144zm96-64h-32v-112h32zm0 0" data-original="#000000" class="active-path" data-old_color="#f63c25" fill="#f63c25"/></g> </svg>
